{
    "asset": {
        "version": "2.0",
        "generator": "Open Asset Import Library (assimp v5.4.0)"
    },
    "extensionsUsed": [
        "KHR_materials_volume",
        "FB_ngon_encoding"
    ],
    "accessors": [
        {
            "bufferView": 0,
            "byteOffset": 0,
            "componentType": 5126,
            "count": 45759,
            "type": "VEC3",
            "max": [
                0.1954106092453003,
                0.13503551483154297,
                0.2208373248577118
            ],
            "min": [
                -0.20426835119724274,
                -0.12777931988239288,
                -0.2067461907863617
            ]
        },
        {
            "bufferView": 1,
            "byteOffset": 0,
            "componentType": 5126,
            "count": 45759,
            "type": "VEC3",
            "max": [
                0.9999977350234985,
                0.9999915361404419,
                0.9999902248382568
            ],
            "min": [
                -0.9999960660934448,
                -0.9999998807907104,
                -0.9999960660934448
            ]
        },
        {
            "bufferView": 2,
            "byteOffset": 0,
            "componentType": 5126,
            "count": 45759,
            "type": "VEC2",
            "max": [
                0.9959328770637512,
                0.996183454990387
            ],
            "min": [
                0.0038165710866451263,
                0.003816664218902588
            ]
        },
        {
            "bufferView": 3,
            "byteOffset": 0,
            "componentType": 5125,
            "count": 148764,
            "type": "SCALAR",
            "max": [
                45758
            ],
            "min": [
                0
            ]
        }
    ],
    "buffers": [
        {
            "byteLength": 2059344,
            "uri": "house5_0.bin"
        }
    ],
    "bufferViews": [
        {
            "buffer": 0,
            "byteOffset": 0,
            "byteLength": 549108,
            "target": 34962
        },
        {
            "buffer": 0,
            "byteOffset": 549108,
            "byteLength": 549108,
            "target": 34962
        },
        {
            "buffer": 0,
            "byteOffset": 1098216,
            "byteLength": 366072,
            "target": 34962
        },
        {
            "buffer": 0,
            "byteOffset": 1464288,
            "byteLength": 595056,
            "target": 34963
        }
    ],
    "images": [
        {
            "uri": "textures/image_1.png"
        },
        {
            "uri": "textures/image_0.png"
        }
    ],
    "materials": [
        {
            "name": "Material_0.004",
            "pbrMetallicRoughness": {
                "baseColorTexture": {
                    "index": 0
                },
                "metallicRoughnessTexture": {
                    "index": 1
                },
                "metallicFactor": 0.800000011920929
            },
            "doubleSided": true
        }
    ],
    "meshes": [
        {
            "name": "meshes[0]",
            "primitives": [
                {
                    "mode": 4,
                    "material": 0,
                    "indices": 3,
                    "attributes": {
                        "POSITION": 0,
                        "NORMAL": 1,
                        "TEXCOORD_0": 2
                    }
                }
            ]
        }
    ],
    "nodes": [
        {
            "name": "house5",
            "children": [
                1
            ]
        },
        {
            "name": "high_poly004",
            "matrix": [
                265.754150390625,
                0.0,
                0.0,
                0.0,
                0.0,
                265.754150390625,
                0.0,
                0.0,
                0.0,
                0.0,
                265.754150390625,
                0.0,
                0.0,
                33.916900634765625,
                0.0,
                1.0
            ],
            "mesh": 0,
            "extras": {
                "name": "high_poly.004"
            }
        }
    ],
    "samplers": [
        {
            "magFilter": 9729,
            "minFilter": 9987
        },
        {
            "magFilter": 9729,
            "minFilter": 9987
        }
    ],
    "scenes": [
        {
            "nodes": [
                0
            ]
        }
    ],
    "textures": [
        {
            "source": 0,
            "sampler": 0
        },
        {
            "source": 1,
            "sampler": 1
        }
    ],
    "scene": 0
}