{
    "asset": {
        "version": "2.0",
        "generator": "Open Asset Import Library (assimp v5.4.0)"
    },
    "extensionsUsed": [
        "KHR_materials_volume",
        "FB_ngon_encoding"
    ],
    "accessors": [
        {
            "bufferView": 0,
            "byteOffset": 0,
            "componentType": 5126,
            "count": 40139,
            "type": "VEC3",
            "max": [
                0.2152690589427948,
                0.14200179278850555,
                0.22626106441020966
            ],
            "min": [
                -0.24165214598178864,
                -0.13466893136501312,
                -0.22222331166267395
            ]
        },
        {
            "bufferView": 1,
            "byteOffset": 0,
            "componentType": 5126,
            "count": 40139,
            "type": "VEC3",
            "max": [
                0.9999868869781494,
                0.9999663829803467,
                0.9999855756759644
            ],
            "min": [
                -0.9999659061431885,
                -0.9999994039535522,
                -0.9999951124191284
            ]
        },
        {
            "bufferView": 2,
            "byteOffset": 0,
            "componentType": 5126,
            "count": 40139,
            "type": "VEC2",
            "max": [
                0.9963781237602234,
                0.9963781833648682
            ],
            "min": [
                0.0036218788009136915,
                0.010920464992523193
            ]
        },
        {
            "bufferView": 3,
            "byteOffset": 0,
            "componentType": 5125,
            "count": 145344,
            "type": "SCALAR",
            "max": [
                40138
            ],
            "min": [
                0
            ]
        }
    ],
    "buffers": [
        {
            "byteLength": 1865824,
            "uri": "house1_0.bin"
        }
    ],
    "bufferViews": [
        {
            "buffer": 0,
            "byteOffset": 0,
            "byteLength": 481668,
            "target": 34962
        },
        {
            "buffer": 0,
            "byteOffset": 481668,
            "byteLength": 481668,
            "target": 34962
        },
        {
            "buffer": 0,
            "byteOffset": 963336,
            "byteLength": 321112,
            "target": 34962
        },
        {
            "buffer": 0,
            "byteOffset": 1284448,
            "byteLength": 581376,
            "target": 34963
        }
    ],
    "images": [
        {
            "uri": "textures/image_1.png"
        },
        {
            "uri": "textures/image_0.png"
        }
    ],
    "materials": [
        {
            "name": "Material_0.003",
            "pbrMetallicRoughness": {
                "baseColorTexture": {
                    "index": 0
                },
                "metallicRoughnessTexture": {
                    "index": 1
                },
                "metallicFactor": 0.800000011920929
            },
            "doubleSided": true
        }
    ],
    "meshes": [
        {
            "name": "meshes[0]",
            "primitives": [
                {
                    "mode": 4,
                    "material": 0,
                    "indices": 3,
                    "attributes": {
                        "POSITION": 0,
                        "NORMAL": 1,
                        "TEXCOORD_0": 2
                    }
                }
            ]
        }
    ],
    "nodes": [
        {
            "name": "house1",
            "children": [
                1
            ]
        },
        {
            "name": "high_poly003",
            "matrix": [
                232.38267517089844,
                0.0,
                0.0,
                0.0,
                0.0,
                232.38267517089844,
                0.0,
                0.0,
                0.0,
                0.0,
                232.38267517089844,
                0.0,
                0.0,
                38.69024658203125,
                0.0,
                1.0
            ],
            "mesh": 0,
            "extras": {
                "name": "high_poly.003"
            }
        }
    ],
    "samplers": [
        {
            "magFilter": 9729,
            "minFilter": 9987
        },
        {
            "magFilter": 9729,
            "minFilter": 9987
        }
    ],
    "scenes": [
        {
            "nodes": [
                0
            ]
        }
    ],
    "textures": [
        {
            "source": 0,
            "sampler": 0
        },
        {
            "source": 1,
            "sampler": 1
        }
    ],
    "scene": 0
}